<?xml version="1.0" encoding="UTF-8" standalone="no"?>
<svg
   xmlns:dc="http://purl.org/dc/elements/1.1/"
   xmlns:cc="http://creativecommons.org/ns#"
   xmlns:rdf="http://www.w3.org/1999/02/22-rdf-syntax-ns#"
   xmlns:svg="http://www.w3.org/2000/svg"
   xmlns="http://www.w3.org/2000/svg"
   xmlns:sodipodi="http://sodipodi.sourceforge.net/DTD/sodipodi-0.dtd"
   xmlns:inkscape="http://www.inkscape.org/namespaces/inkscape"
   version="1.0"
   width="651.666503pt"
   height="412.594674pt"
   viewBox="0 0 651.666503 412.594674"
   preserveAspectRatio="xMidYMid meet"
   id="svg132"
   sodipodi:docname="LandoNewLogo.svg"
   inkscape:version="0.92.3 (2405546, 2018-03-11)">
  <defs
     id="defs136" />
  <sodipodi:namedview
     pagecolor="#ffffff"
     bordercolor="#666666"
     borderopacity="1"
     objecttolerance="10"
     gridtolerance="10"
     guidetolerance="10"
     inkscape:pageopacity="0"
     inkscape:pageshadow="2"
     inkscape:window-width="1920"
     inkscape:window-height="1017"
     id="namedview134"
     showgrid="false"
     inkscape:zoom="0.97982238"
     inkscape:cx="397.03186"
     inkscape:cy="194.11431"
     inkscape:window-x="-8"
     inkscape:window-y="-8"
     inkscape:window-maximized="1"
     inkscape:current-layer="g130" />
  <metadata
     id="metadata2">
Created by potrace 1.12, written by Peter Selinger 2001-2015
<rdf:RDF>
  <cc:Work
     rdf:about="">
    <dc:format>image/svg+xml</dc:format>
    <dc:type
       rdf:resource="http://purl.org/dc/dcmitype/StillImage" />
    <dc:title></dc:title>
  </cc:Work>
</rdf:RDF>
</metadata>
  <g
     transform="translate(-25.157449,428.070323) scale(0.100000,-0.100000)"
     fill="#000000"
     stroke="none"
     id="g130">
    <g
       id="g317">
      <g
         id="g214">
        <path
           d="M2515 4000 c-16 -4 -47 -15 -68 -24 -21 -9 -81 -21 -133 -26 -59 -5 -105 -15 -121 -25 -34 -23 -74 -34 -161 -45 -44 -6 -89 -19 -115 -34 -43 -25 -125 -51 -188 -61 -21 -3 -53 -17 -73 -30 -43 -29 -112 -58 -180 -76 -27 -7 -68 -27 -92 -45 -54 -41 -94 -62 -155 -80 -30 -9 -70 -33 -105 -64 -32 -28 -86 -64 -122 -81 -45 -21 -88 -53 -139 -105 -41 -41 -79 -74 -85 -74 -20 0 -79 -51 -104 -91 -14 -22 -60 -75 -103 -117 -44 -44 -81 -90 -85 -106 -8 -31 -68 -130 -85 -141 -19 -11 -41 -63 -61 -140 -10 -41 -31 -100 -47 -132 -23 -49 -28 -71 -28 -143 -1 -47 -5 -122 -9 -167 -7 -67 -6 -91 7 -125 9 -24 21 -81 26 -128 9 -87 17 -112 76 -215 19 -33 35 -68 35 -78 0 -30 30 -84 64 -119 42 -42 86 -103 111 -151 10 -22 33 -49 49 -60 16 -12 73 -66 126 -119 53 -54 103 -98 112 -98 19 0 103 -63 140 -105 15 -17 46 -40 70 -49 77 -33 122 -59 167 -98 24 -21 62 -43 85 -49 61 -16 135 -51 172 -80 18 -14 55 -32 81 -38 93 -23 148 -44 192 -72 60 -39 110 -44 200 -20 40 10 77 23 82 28 13 13 -38 71 -84 95 -31 17 -60 22 -113 23 -67 0 -73 2 -97 31 -39 46 -119 78 -180 71 -45 -6 -50 -4 -64 21 -35 60 -112 101 -190 102 -37 0 -45 4 -58 30 -32 62 -109 109 -177 110 -34 0 -39 4 -53 38 -29 69 -111 131 -173 132 -13 0 -25 8 -28 18 -28 88 -81 150 -147 171 -31 11 -37 18 -42 49 -10 63 -46 123 -97 160 -48 34 -48 34 -48 90 0 68 -25 128 -68 164 l-31 25 16 44 c20 59 11 131 -23 182 -21 32 -24 44 -15 56 48 66 61 139 39 213 -10 36 -10 40 11 54 43 31 74 94 79 165 l5 67 47 31 c53 34 85 87 96 158 6 37 9 42 41 48 49 9 128 88 142 141 11 39 14 42 55 48 60 9 120 55 150 115 25 48 26 49 79 53 65 5 125 44 157 101 20 35 24 37 71 37 66 0 141 38 175 89 24 37 27 38 61 31 58 -14 128 11 181 62 43 41 50 45 77 37 60 -18 144 8 202 63 29 28 34 30 64 19 63 -22 126 -7 194 45 37 28 49 32 65 24 27 -14 125 -12 163 3 34 15 147 113 147 128 0 26 -112 53 -165 39z m101 -30 l27 -11 -34 -35 c-19 -19 -47 -44 -64 -54 -40 -25 -113 -34 -150 -20 l-30 12 53 49 c69 63 134 83 198 59z m-260 -61 c9 -15 -62 -85 -111 -109 -44 -21 -110 -26 -135 -10 -12 8 -10 14 15 41 64 68 103 89 166 89 32 0 61 -5 65 -11z m-272 -68 c11 -18 -91 -117 -132 -129 -46 -14 -91 -15 -110 -3 -17 10 70 108 113 127 35 15 121 18 129 5z m-278 -81 c8 0 14 -4 14 -9 0 -15 -76 -102 -106 -122 -35 -22 -106 -34 -129 -22 -14 8 -11 16 24 61 23 28 53 59 66 68 29 19 84 34 103 28 8 -2 20 -4 28 -4z m-246 -108 c0 -24 -81 -120 -117 -140 -45 -24 -109 -37 -117 -23 -3 5 12 35 33 68 28 43 51 66 82 81 43 22 119 30 119 14z m-278 -175 c-41 -76 -83 -113 -139 -125 -26 -6 -51 -8 -55 -6 -9 6 25 76 59 121 28 38 55 54 103 63 58 11 63 3 32 -53z m-222 -99 c0 -7 -13 -41 -29 -74 -33 -70 -80 -112 -136 -121 -36 -6 -37 -5 -30 18 32 104 68 152 132 174 48 18 63 18 63 3z m-220 -167 c0 -5 -9 -37 -20 -72 -21 -71 -70 -130 -120 -148 -29 -10 -30 -9 -30 23 0 48 26 116 58 150 38 40 112 71 112 47z m-200 -209 c0 -44 -23 -140 -41 -169 -25 -40 -80 -77 -91 -60 -11 17 -10 76 3 122 12 44 39 78 84 106 37 24 45 24 45 1z m-160 -304 c0 -87 -14 -130 -55 -168 l-24 -23 -10 25 c-21 56 -24 118 -6 163 17 45 69 100 86 89 5 -3 9 -41 9 -86z m-95 -242 c21 -77 16 -141 -13 -188 l-21 -32 -30 64 c-33 69 -38 112 -19 157 15 35 48 74 58 68 4 -3 16 -34 25 -69z m-31 -268 c21 -34 41 -79 43 -99 7 -46 -4 -109 -18 -109 -32 0 -108 118 -109 167 0 26 29 103 39 103 3 0 23 -28 45 -62z m48 -275 c38 -41 58 -72 67 -104 14 -50 12 -80 -4 -86 -18 -5 -109 71 -127 107 -24 48 -23 140 2 140 4 0 32 -26 62 -57z m106 -253 c63 -40 96 -82 108 -133 8 -38 0 -43 -44 -27 -91 33 -135 82 -149 166 -7 45 8 45 85 -6z m192 -238 c54 -27 99 -83 100 -123 0 -33 -136 8 -177 52 -23 25 -43 70 -43 96 0 21 48 11 120 -25z m150 -177 c65 -10 121 -46 149 -96 l24 -42 -72 6 c-47 4 -84 13 -106 27 -56 34 -102 129 -57 116 9 -2 37 -8 62 -11z m312 -191 c34 -18 88 -72 88 -89 0 -15 -90 -18 -139 -5 -48 13 -96 51 -117 93 l-16 30 76 -6 c42 -4 91 -14 108 -23z m258 -144 c21 -11 48 -33 59 -49 l21 -29 -23 -6 c-40 -11 -137 -6 -171 8 -29 12 -86 71 -86 89 0 4 36 7 80 7 61 0 90 -5 120 -20z m253 -116 c35 -18 77 -53 77 -65 0 -12 -69 -29 -118 -29 -57 0 -102 20 -136 61 l-29 34 34 6 c66 12 140 9 172 -7z m245 -90 c17 -4 48 -21 69 -39 l38 -33 -54 -16 c-30 -9 -71 -16 -90 -16 -46 1 -114 31 -135 61 -17 24 -17 24 31 36 57 13 99 15 141 7z"
           id="path20" />
        <path
           d="M4396 3996 c-66 -25 -67 -32 -5 -90 31 -29 72 -60 91 -69 40 -19 138 -23 168 -7 16 8 28 4 65 -24 67 -52 131 -67 193 -45 30 10 35 8 78 -30 53 -47 130 -69 187 -53 33 9 37 7 78 -34 50 -51 93 -68 169 -66 53 1 56 -1 81 -37 35 -49 100 -81 167 -81 47 0 53 -3 67 -30 32 -62 108 -110 174 -110 39 0 42 -2 66 -50 31 -61 90 -107 151 -116 41 -6 45 -9 55 -46 15 -56 82 -126 135 -140 39 -11 42 -15 48 -52 12 -71 43 -123 97 -157 47 -31 49 -35 49 -77 0 -69 21 -123 63 -165 38 -38 39 -41 28 -77 -21 -72 -7 -155 36 -202 14 -16 13 -21 -10 -61 -34 -58 -43 -129 -24 -186 l16 -44 -31 -25 c-43 -36 -68 -96 -68 -164 0 -56 -1 -58 -40 -83 -51 -32 -96 -101 -104 -160 -6 -39 -11 -45 -43 -56 -66 -21 -119 -83 -147 -171 -3 -10 -15 -18 -28 -18 -62 -1 -144 -63 -173 -133 -14 -33 -19 -37 -53 -37 -59 0 -133 -42 -166 -94 -26 -42 -30 -44 -86 -49 -71 -6 -125 -35 -164 -87 -28 -37 -30 -39 -76 -33 -60 7 -147 -30 -181 -76 -22 -31 -25 -31 -79 -25 -46 5 -66 2 -109 -16 -54 -24 -118 -87 -102 -103 19 -19 156 -48 196 -42 52 8 117 46 135 79 12 24 17 26 61 20 65 -9 139 17 179 62 16 19 30 39 30 43 0 5 31 10 69 13 55 3 76 9 107 31 127 91 152 106 182 112 20 4 51 24 80 52 65 63 132 113 150 113 9 0 59 44 112 98 53 53 110 107 126 119 16 11 39 38 49 60 24 46 64 101 122 166 26 30 45 63 49 85 4 20 21 63 38 95 17 32 39 75 50 94 11 21 22 71 27 122 5 47 16 106 25 130 14 35 15 59 8 125 -4 44 -8 119 -9 166 0 62 -5 95 -18 120 -27 51 -55 129 -63 175 -7 44 -37 110 -55 120 -17 11 -77 110 -85 141 -4 16 -41 62 -85 106 -43 42 -89 95 -103 117 -26 40 -84 91 -104 91 -7 0 -45 33 -85 74 -52 52 -93 84 -139 105 -36 17 -90 53 -122 81 -39 34 -74 55 -111 65 -30 9 -90 40 -135 70 -47 32 -97 56 -121 60 -40 7 -97 31 -189 81 -24 13 -58 24 -75 24 -34 0 -124 32 -171 61 -18 11 -65 24 -105 29 -88 11 -128 22 -162 45 -16 10 -62 20 -122 25 -55 6 -115 18 -140 29 -63 28 -123 34 -169 17z m116 -26 c38 -11 142 -96 133 -110 -9 -15 -83 -21 -123 -10 -25 6 -62 30 -94 59 l-53 49 25 11 c33 13 67 13 112 1z m314 -79 c21 -16 52 -43 69 -60 25 -27 27 -33 15 -41 -22 -14 -86 -12 -125 4 -19 8 -57 36 -85 62 -59 55 -54 64 31 64 46 0 63 -5 95 -29z m237 -55 c44 -18 133 -116 115 -127 -19 -12 -64 -11 -109 3 -43 12 -145 111 -134 128 9 15 90 12 128 -4z m267 -92 c28 -14 65 -52 99 -101 l21 -32 -20 -6 c-29 -9 -91 3 -124 24 -29 19 -106 107 -106 121 0 21 85 17 130 -6z m248 -105 c33 -16 55 -38 83 -82 47 -73 41 -87 -28 -69 -25 7 -59 22 -75 33 -27 20 -98 114 -98 131 0 16 75 7 118 -13z m242 -124 c46 -24 132 -156 110 -170 -5 -3 -30 0 -56 6 -54 14 -96 53 -137 128 l-28 51 41 0 c23 0 54 -7 70 -15z m230 -150 c44 -23 79 -77 105 -164 7 -23 6 -24 -30 -18 -56 9 -103 51 -136 121 -38 80 -38 89 4 81 17 -4 43 -13 57 -20z m176 -155 c8 0 32 -16 53 -35 42 -38 71 -104 71 -162 0 -31 -1 -32 -27 -22 -54 20 -102 79 -123 150 -24 80 -24 83 -4 75 9 -3 22 -6 30 -6z m203 -211 c46 -28 68 -56 80 -106 13 -49 14 -120 3 -127 -13 -8 -70 34 -91 67 -27 44 -53 187 -33 187 4 0 22 -9 41 -21z m180 -255 c37 -47 45 -90 31 -166 -7 -41 -16 -68 -23 -65 -6 2 -25 20 -41 41 -28 34 -31 46 -35 122 -4 101 1 119 28 104 11 -5 29 -21 40 -36z m111 -293 c16 -56 12 -81 -21 -151 l-30 -64 -21 32 c-36 57 -35 140 2 238 l11 27 24 -23 c14 -13 29 -40 35 -59z m15 -243 c20 -51 14 -95 -21 -156 -26 -44 -69 -80 -82 -68 -4 4 -7 38 -7 74 0 61 4 73 40 130 22 34 43 62 46 62 4 0 14 -19 24 -42z m-41 -254 c11 -30 6 -89 -12 -124 -17 -36 -109 -112 -127 -107 -15 5 -17 41 -5 88 8 28 30 61 67 101 31 32 59 58 63 58 5 0 11 -7 14 -16z m-98 -296 c-11 -66 -41 -105 -107 -138 -78 -40 -93 -39 -84 3 15 67 58 116 140 160 50 27 58 23 51 -25z m-156 -218 c0 -33 -27 -77 -62 -103 -38 -28 -57 -35 -115 -46 -50 -10 -54 -1 -27 55 19 40 57 69 122 95 63 24 82 24 82 -1z m-190 -196 c0 -27 -33 -73 -71 -100 -27 -19 -54 -26 -109 -31 l-73 -6 24 42 c28 51 67 76 145 95 78 19 84 19 84 0z m-224 -193 c-21 -40 -70 -79 -117 -91 -45 -12 -139 -11 -139 2 0 5 10 23 23 39 37 51 99 75 200 78 l48 1 -15 -29z m-226 -128 c0 -18 -57 -77 -86 -89 -34 -14 -149 -19 -178 -8 -14 5 -13 9 4 34 33 47 94 70 183 70 42 0 77 -3 77 -7z m-290 -122 l45 -7 -40 -41 c-47 -47 -87 -59 -168 -49 -74 10 -86 19 -62 46 48 53 116 69 225 51z m-267 -104 c48 -12 48 -12 31 -36 -21 -30 -89 -60 -135 -61 -19 0 -59 7 -88 16 -52 15 -53 16 -34 36 48 54 125 69 226 45z"
           id="path22" />
      </g>
      <path
         id="path24"
         d="M3255 3873 c-723 -43 -1332 -193 -1833 -453 -759 -394 -1101 -958 -925 -1525 112 -359 443 -690 945 -944 439 -222 954 -361 1558 -422 177 -17 659 -23 856 -10 1207 81 2210 540 2575 1179 312 546 92 1141 -586 1589 -565 372 -1471 600 -2355 591 -102 -1 -207 -3 -235 -5z m530 -63 c1190 -64 2165 -478 2559 -1087 276 -427 198 -906 -212 -1305 -129 -125 -243 -211 -411 -312 -829 -494 -2102 -664 -3255 -435 -555 111 -1059 322 -1416 594 -90 68 -276 257 -332 335 -157 223 -227 463 -200 683 59 474 469 894 1167 1192 587 250 1364 374 2100 335z" />
      <path
         id="path26"
         d="M3439 3523 c-17 -42 -15 -80 6 -103 16 -18 16 -22 3 -52 -16 -35 -33 -238 -20 -238 22 0 37 52 42 157 3 61 8 114 10 116 3 2 60 2 128 -1 l122 -4 0 -134 c0 -138 9 -167 31 -95 9 31 9 59 -3 135 -14 91 -14 97 4 112 21 20 25 79 6 91 -7 4 -76 10 -152 13 -99 4 -141 9 -144 18 -6 20 -22 14 -33 -15z" />
      <path
         id="path28"
         d="M3885 3516 c-20 -29 -23 -82 -6 -99 6 -7 26 -17 44 -23 29 -10 33 -16 37 -57 4 -32 14 -55 33 -75 15 -15 27 -32 27 -36 0 -4 -28 -5 -63 -1 l-64 7 -20 -54 c-11 -29 -19 -55 -17 -57 6 -7 225 -30 238 -25 8 3 19 18 24 32 6 15 13 34 17 43 4 12 -7 30 -39 59 -25 24 -46 47 -46 53 0 14 40 67 51 67 5 0 15 -11 21 -25 l11 -25 22 33 c12 17 25 45 29 61 6 24 2 33 -34 66 -22 20 -40 42 -40 48 0 36 -52 -20 -63 -69 -5 -19 -1 -34 13 -52 25 -31 25 -31 -2 -67 l-22 -30 -28 27 c-30 29 -34 56 -18 112 10 37 -1 71 -24 71 -7 0 -25 9 -39 20 l-26 21 -16 -25z" />
      <path
         id="path56"
         d="M3210 2849 c-694 -49 -1238 -257 -1371 -526 -35 -71 -33 -178 4 -251 132 -254 587 -438 1267 -513 152 -17 638 -17 805 0 830 84 1364 373 1294 701 -82 381 -1021 658 -1999 589z m520 -49 c608 -35 1110 -183 1320 -390 86 -84 114 -141 108 -218 -6 -79 -31 -127 -108 -202 -263 -259 -1011 -427 -1737 -390 -825 43 -1447 301 -1447 600 0 292 604 550 1404 599 195 12 264 12 460 1z" />
      <g
         id="g230">
        <path
           d="M3032 3513 c-17 -32 -15 -89 5 -109 15 -15 32 -16 140 -10 l122 6 17 -25 c23 -35 23 -98 0 -124 -10 -11 -42 -25 -75 -32 -68 -14 -79 -22 -103 -77 -21 -47 -17 -69 7 -35 8 12 45 33 82 47 88 34 89 35 108 79 27 65 13 201 -26 252 -20 24 -24 25 -139 25 -86 0 -119 3 -122 12 -3 8 -9 5 -16 -9z"
           id="path30" />
        <path
           d="M4288 3453 c-41 -54 -37 -83 17 -121 50 -35 55 -55 23 -89 -22 -23 -20 -40 5 -30 20 8 77 121 77 155 0 23 -9 35 -40 57 -22 16 -40 36 -40 46 0 28 -12 23 -42 -18z"
           id="path32" />
        <path
           d="M2597 3453 c-25 -47 -22 -88 8 -111 23 -19 26 -52 5 -52 -5 0 -52 21 -105 47 -64 31 -101 55 -110 72 l-13 25 -11 -39 c-17 -60 -13 -91 13 -122 20 -24 23 -36 19 -76 -4 -33 0 -66 13 -103 15 -45 16 -58 6 -74 -15 -24 -9 -25 72 -9 l57 12 -3 40 c-3 36 -9 45 -63 87 -60 47 -81 89 -41 82 44 -8 271 -129 281 -150 13 -30 21 -28 34 9 25 71 0 122 -76 158 -40 18 -49 27 -46 42 6 21 23 25 40 8 9 -9 16 -3 29 24 22 47 10 77 -45 111 -21 14 -41 31 -43 38 -3 8 -12 0 -21 -19z"
           id="path34" />
        <path
           d="M4746 3365 c-30 -46 -35 -71 -21 -98 11 -22 11 -28 0 -37 -13 -11 -85 -211 -85 -236 0 -5 62 -30 137 -53 75 -24 142 -45 149 -48 13 -5 104 264 104 308 0 13 -9 38 -20 56 -16 28 -33 36 -119 63 -74 23 -101 36 -106 50 -8 27 -19 25 -39 -5z m119 -161 c93 -29 115 -48 115 -100 0 -35 -18 -94 -29 -94 -4 0 -58 17 -121 39 l-115 38 2 40 c2 56 29 117 48 109 8 -3 53 -17 100 -32z"
           id="path36" />
        <path
           d="M2127 3330 c-18 -89 -4 -114 72 -124 54 -7 66 -22 59 -73 -2 -12 2 -22 7 -22 16 -2 18 161 2 183 -7 10 -35 22 -61 27 -27 5 -54 16 -61 25 -10 15 -13 13 -18 -16z"
           id="path38" />
        <path
           d="M3046 3306 c-9 -29 0 -344 11 -371 7 -20 32 -19 40 1 3 9 -4 82 -16 163 -12 80 -22 166 -24 191 -2 42 -3 43 -11 16z"
           id="path40" />
        <path
           d="M1906 3264 c-3 -9 -6 -35 -6 -59 0 -54 25 -75 87 -75 50 0 66 -21 56 -71 -5 -25 -3 -31 8 -27 19 6 19 131 0 175 -12 29 -19 33 -63 39 -27 4 -55 13 -63 20 -11 11 -14 11 -19 -2z"
           id="path42" />
        <path
           d="M5148 3217 c-53 -47 -56 -68 -13 -115 41 -46 44 -74 10 -96 -14 -9 -25 -21 -25 -26 0 -20 28 -9 56 22 84 93 90 119 44 177 -20 24 -28 44 -24 54 9 26 -7 20 -48 -16z"
           id="path44" />
        <path
           d="M1684 3139 c10 -65 30 -89 71 -89 33 0 35 -2 35 -32 0 -39 88 -220 103 -211 20 12 -2 82 -47 149 -53 80 -59 109 -20 101 23 -4 25 -2 18 27 -14 71 -25 81 -85 82 -30 0 -61 4 -68 9 -12 6 -13 0 -7 -36z"
           id="path46" />
        <path
           d="M5357 3109 c-45 -37 -46 -58 -6 -114 26 -35 29 -46 20 -63 -6 -11 -20 -24 -31 -27 -22 -7 -26 -20 -10 -30 13 -8 119 92 131 124 8 19 3 33 -21 69 -17 26 -28 52 -26 59 9 23 -18 14 -57 -18z"
           id="path48" />
        <path
           d="M1480 3023 c1 -70 15 -83 89 -83 56 0 62 -2 71 -25 5 -14 7 -32 4 -40 -4 -10 0 -15 11 -15 15 0 16 7 10 53 -4 28 -15 71 -25 95 -19 42 -19 42 -70 42 -28 0 -60 5 -71 10 -18 10 -19 7 -19 -37z"
           id="path50" />
        <path
           d="M5609 3000 c-38 -20 -66 -68 -55 -95 4 -10 -5 -19 -27 -29 -18 -7 -57 -42 -87 -77 -30 -35 -63 -71 -73 -80 -11 -9 -16 -19 -11 -22 22 -13 77 27 139 103 39 47 73 79 81 76 15 -6 182 -139 183 -146 1 -3 -35 -51 -79 -107 -86 -109 -97 -132 -52 -109 39 20 64 51 108 133 31 57 44 73 62 73 41 0 76 54 54 85 -4 6 -53 48 -110 94 -82 66 -102 87 -97 102 8 23 9 23 -36 -1z"
           id="path52" />
        <path
           d="M1229 2855 c-56 -44 -88 -63 -100 -60 -16 5 -17 2 -9 -26 11 -37 35 -66 61 -74 24 -8 52 7 119 65 107 91 123 95 175 40 42 -44 38 -76 -19 -145 -50 -61 -52 -75 -23 -145 10 -25 10 -25 17 10 3 20 20 56 37 80 53 78 56 87 42 128 -28 86 -132 192 -190 192 -19 0 -53 -21 -110 -65z"
           id="path54" />
        <path
           d="M1245 2628 c11 -35 29 -60 136 -189 55 -65 107 -119 115 -119 39 0 7 48 -111 170 -69 70 -125 135 -125 144 0 9 -5 16 -11 16 -6 0 -8 -9 -4 -22z"
           id="path66" />
      </g>
      <g
         id="g249">
        <path
           d="M885 2348 c-2 -13 -6 -43 -7 -67 l-3 -45 -25 50 c-27 53 -48 64 -74 38 -26 -25 -16 -47 32 -69 54 -25 54 -39 -2 -31 -33 5 -48 3 -60 -9 -19 -19 -19 -21 -6 -46 15 -26 46 -24 82 6 37 31 56 32 34 3 -48 -68 -48 -66 -36 -87 12 -23 54 -29 66 -9 4 6 7 34 6 62 l-1 51 22 -45 c17 -34 28 -45 46 -45 28 0 47 25 38 49 -4 9 -22 23 -41 31 -57 24 -57 39 2 31 60 -8 87 9 73 47 -12 32 -46 33 -82 2 -42 -35 -48 -24 -14 26 33 46 27 72 -18 77 -21 3 -27 -2 -32 -20z"
           id="path68" />
        <path
           d="M6140 2355 c-8 -10 -10 -30 -6 -60 9 -56 -7 -60 -31 -8 -26 52 -47 63 -74 37 -28 -28 -13 -58 36 -74 56 -19 55 -33 -3 -25 -44 6 -51 4 -65 -16 -12 -16 -13 -27 -6 -41 14 -25 46 -23 81 7 50 42 64 32 22 -17 -32 -39 -30 -81 5 -86 36 -5 52 21 44 74 -7 56 3 56 27 -1 16 -36 24 -45 44 -45 27 0 50 29 40 53 -3 8 -23 23 -45 32 -59 27 -60 39 -3 31 63 -8 90 8 80 47 -9 36 -47 36 -88 2 -40 -34 -48 -24 -14 15 14 17 26 39 26 49 0 37 -46 55 -70 26z"
           id="path70" />
      </g>
      <g
         id="g245">
        <path
           d="M5660 1985 c0 -39 21 -95 40 -105 10 -5 32 -10 48 -10 38 0 46 -12 62 -86 14 -72 12 -79 -58 -148 l-50 -49 -11 42 c-6 22 -16 59 -21 81 -13 49 -6 64 26 56 30 -8 30 4 4 62 -19 42 -19 42 -74 42 -30 0 -61 3 -69 6 -13 4 -14 0 -7 -28 16 -67 34 -88 78 -88 15 0 22 -14 36 -81 10 -45 20 -87 23 -95 3 -8 -1 -14 -9 -14 -20 0 -97 57 -105 76 -7 18 15 36 35 29 20 -7 14 8 -18 47 -40 48 -60 53 -110 28 -22 -11 -46 -17 -53 -13 -15 9 18 -43 47 -75 16 -18 27 -22 52 -17 28 5 34 2 52 -29 11 -18 55 -60 98 -92 l78 -57 78 83 c43 45 78 89 78 97 0 8 -13 33 -28 56 -45 67 -64 115 -69 181 -7 78 -22 96 -83 96 -25 0 -51 5 -58 12 -9 9 -12 8 -12 -7z"
           id="path72" />
        <path
           d="M1308 1940 c-40 -22 -52 -45 -43 -83 6 -21 3 -26 -22 -31 -34 -8 -62 -32 -126 -107 l-47 -57 105 -101 106 -101 47 25 c132 69 208 186 182 279 -23 84 -28 85 -124 27 -47 -29 -88 -56 -91 -60 -2 -5 15 -6 39 -4 38 5 48 2 70 -20 36 -36 42 -69 19 -113 -35 -71 -42 -69 -148 36 -52 52 -95 100 -95 106 0 14 75 84 90 84 6 0 10 -9 10 -20 0 -25 2 -25 49 -1 58 30 65 43 50 88 -7 21 -12 46 -11 56 1 22 -14 21 -60 -3z"
           id="path74" />
        <path
           d="M1728 1854 c-22 -11 -28 -22 -28 -48 0 -23 -9 -43 -27 -64 -16 -16 -41 -55 -58 -86 -37 -69 -34 -75 66 -134 105 -62 118 -83 76 -126 -20 -19 -39 -25 -108 -31 -46 -4 -94 -13 -106 -21 -28 -18 -30 -50 -4 -64 23 -12 51 -3 51 15 0 19 9 23 93 46 39 11 82 29 93 40 31 29 77 136 70 163 -3 14 -34 38 -91 71 -103 60 -108 77 -41 139 33 31 44 50 48 79 5 42 4 42 -34 21z"
           id="path76" />
        <path
           d="M5241 1604 c-40 -20 -82 -33 -92 -31 -26 7 -25 -37 1 -80 25 -42 43 -42 130 2 82 41 99 43 133 11 24 -22 62 -85 55 -90 -2 -2 -48 -30 -103 -62 l-101 -59 11 -52 c5 -28 13 -54 16 -58 6 -5 236 123 262 146 9 7 -10 119 -19 119 -3 0 -13 -4 -23 -9 -15 -8 -25 4 -70 80 -53 89 -81 119 -111 119 -8 0 -48 -16 -89 -36z"
           id="path78" />
        <path
           d="M1962 1502 c-28 -34 -38 -70 -25 -91 5 -9 44 -33 86 -54 59 -29 79 -45 83 -64 9 -33 -23 -136 -39 -130 -7 3 -58 23 -114 45 l-103 40 -40 -45 c-22 -26 -39 -47 -37 -49 1 -2 67 -28 147 -60 l144 -56 38 43 c41 48 45 59 24 59 -27 0 -26 17 9 104 39 95 44 145 18 168 -10 9 -50 32 -90 52 -53 26 -71 40 -67 51 10 24 -9 17 -34 -13z"
           id="path80" />
        <path
           d="M4875 1435 c-115 -46 -135 -52 -135 -35 0 6 -4 10 -10 10 -16 0 -12 -83 6 -108 8 -12 24 -22 36 -22 17 0 20 -5 15 -32 -6 -38 60 -251 74 -242 18 11 8 86 -21 160 -17 42 -30 86 -28 98 2 16 24 29 98 58 52 20 102 37 111 37 10 1 30 -36 64 -119 30 -74 54 -120 63 -120 9 0 12 6 8 16 -3 9 -6 28 -6 43 0 16 -22 64 -49 109 -45 74 -49 84 -38 111 9 24 7 34 -6 55 -24 36 -51 33 -182 -19z"
           id="path82" />
        <path
           d="M2336 1352 c-37 -54 -34 -76 15 -109 37 -24 40 -30 34 -57 -4 -17 -10 -47 -14 -66 -6 -31 -10 -35 -36 -34 -17 0 -44 3 -61 8 -30 7 -33 5 -58 -40 -14 -25 -26 -50 -26 -53 0 -4 30 -15 68 -25 37 -10 75 -21 84 -23 12 -4 24 9 42 45 21 42 26 64 24 124 -1 56 4 84 20 120 12 26 22 51 22 57 0 6 -16 23 -35 38 -19 15 -35 34 -35 41 0 22 -17 12 -44 -26z"
           id="path84" />
        <path
           d="M2540 1290 c-26 -51 -25 -64 6 -93 25 -24 26 -25 9 -56 -9 -18 -23 -69 -30 -113 -8 -45 -17 -90 -21 -101 -8 -26 14 -18 38 14 12 16 20 51 24 109 4 47 11 93 16 103 9 18 11 18 29 1 18 -16 19 -15 39 27 11 24 20 49 20 56 0 7 -20 26 -45 43 -25 17 -45 35 -45 40 0 23 -21 7 -40 -30z"
           id="path86" />
        <path
           d="M4341 1306 c-21 -26 -25 -83 -7 -111 9 -14 23 -25 31 -25 18 0 19 -16 4 -59 -13 -36 -14 -37 -55 -12 -31 19 -44 51 -44 107 0 32 -26 54 -65 54 -19 0 -37 5 -41 11 -10 17 -24 -11 -24 -52 0 -51 19 -72 75 -78 43 -6 48 -9 59 -41 6 -20 25 -44 46 -58 19 -13 36 -27 38 -31 1 -4 -24 -12 -57 -19 -47 -10 -60 -17 -65 -35 -6 -25 -8 -97 -2 -97 11 0 176 32 209 41 37 10 37 10 37 62 l0 53 -55 27 c-60 29 -60 29 -44 76 12 35 24 38 50 15 17 -15 18 -13 29 28 17 60 4 88 -48 113 -24 11 -47 26 -51 33 -6 10 -10 10 -20 -2z"
           id="path88" />
        <path
           d="M2763 1278 c-51 -64 -48 -112 11 -143 42 -23 43 -30 21 -155 -18 -100 -18 -120 -5 -120 19 0 31 43 41 138 6 53 17 116 26 139 19 52 11 76 -32 103 -19 12 -39 28 -43 36 -7 13 -10 13 -19 2z"
           id="path90" />
        <path
           d="M2945 1227 c-36 -86 -11 -113 112 -122 48 -3 98 -10 111 -15 26 -11 27 -26 12 -169 -10 -97 -4 -125 21 -95 18 22 26 281 10 335 -13 45 -21 48 -136 60 -64 6 -94 14 -102 26 -11 14 -14 12 -28 -20z"
           id="path92" />
        <path
           d="M3786 1225 c-3 -9 -6 -36 -6 -60 0 -57 15 -65 122 -65 46 0 88 -4 94 -8 18 -12 32 -44 39 -93 l7 -45 -119 -12 c-65 -7 -121 -16 -124 -20 -9 -10 -31 -104 -25 -109 4 -4 145 8 268 23 44 5 46 7 53 42 3 20 9 47 12 60 4 18 1 22 -19 22 -24 0 -25 3 -35 107 -11 97 -14 110 -38 130 -23 20 -37 23 -114 23 -48 0 -92 5 -98 11 -7 7 -12 6 -17 -6z"
           id="path94" />
        <path
           d="M3537 1195 c-32 -68 -21 -93 57 -128 33 -15 38 -21 33 -45 -2 -15 -8 -35 -12 -44 -5 -13 -3 -18 8 -18 25 0 62 158 43 189 -4 6 -25 20 -47 32 -22 11 -42 26 -46 34 -8 23 -18 18 -36 -20z"
           id="path96" />
      </g>
      <g
         id="g210">
        <path
           d="M2108 585 c-16 -35 -2 -56 43 -68 115 -28 109 -25 109 -62 0 -44 -29 -66 -76 -58 -27 5 -40 1 -59 -17 -14 -13 -25 -28 -25 -34 0 -6 5 -5 12 2 7 7 28 12 48 12 60 0 78 10 100 54 25 53 26 117 3 138 -10 8 -40 21 -68 27 -27 7 -55 17 -62 23 -9 7 -16 3 -25 -17z"
           id="path98" />
        <path
           d="M4806 573 c-41 -12 -50 -13 -57 -1 -6 8 -9 0 -9 -24 0 -52 21 -61 95 -42 70 19 76 14 95 -69 17 -70 29 -91 30 -50 0 41 -47 174 -68 191 -19 14 -23 14 -86 -5z"
           id="path100" />
        <path
           d="M2322 548 c-7 -7 -12 -24 -12 -40 0 -28 9 -33 108 -53 37 -8 40 -26 21 -115 -12 -54 -7 -74 9 -43 16 28 32 185 21 204 -5 10 -31 22 -61 28 -28 7 -57 16 -63 21 -7 6 -16 5 -23 -2z"
           id="path102" />
        <path
           d="M4540 498 c0 -36 25 -48 78 -38 52 9 82 -10 85 -54 2 -29 0 -30 -62 -43 -69 -14 -81 -23 -81 -64 l0 -25 95 20 95 19 0 39 c0 24 -4 37 -12 35 -7 -1 -17 23 -25 58 -19 83 -24 87 -105 83 -66 -3 -68 -4 -68 -30z"
           id="path104" />
        <path
           d="M2540 490 c-16 -38 -3 -55 48 -65 61 -11 72 -21 72 -67 l0 -40 -57 6 c-32 4 -66 9 -75 12 -11 3 -22 -5 -32 -25 -9 -17 -16 -32 -16 -34 0 -3 30 -10 68 -16 37 -6 78 -14 92 -17 22 -4 29 1 43 31 15 32 15 35 1 35 -12 0 -15 6 -11 23 3 12 9 45 12 72 8 59 2 67 -65 85 -25 7 -50 16 -56 21 -8 6 -15 0 -24 -21z"
           id="path106" />
        <path
           d="M4406 485 c-8 -33 5 -51 44 -59 30 -6 31 -7 34 -73 1 -12 -9 -19 -29 -23 -26 -4 -30 -10 -33 -43 -2 -20 -1 -37 2 -37 3 0 28 5 56 11 46 10 50 13 50 40 0 16 -9 47 -20 69 -11 22 -20 53 -20 69 0 28 -22 61 -40 61 -5 0 -15 3 -23 6 -10 3 -17 -4 -21 -21z"
           id="path108" />
        <path
           d="M2082 463 c-13 -31 -52 -185 -52 -202 0 -6 4 -11 9 -11 13 0 28 51 40 137 6 39 14 78 17 87 3 9 4 16 1 16 -2 0 -9 -12 -15 -27z"
           id="path110" />
        <path
           d="M4279 462 c-13 -35 -1 -54 40 -65 30 -7 32 -10 26 -39 -5 -20 -4 -28 3 -24 13 8 25 80 18 104 -3 10 -22 25 -42 34 -35 16 -35 16 -45 -10z"
           id="path112" />
        <path
           d="M2856 449 c-23 -33 -20 -48 14 -67 31 -18 38 -40 18 -60 -9 -9 -9 -12 0 -12 20 0 57 88 43 106 -3 5 -18 19 -33 32 l-26 23 -16 -22z"
           id="path114" />
        <path
           d="M2991 441 c-18 -33 -12 -55 17 -72 25 -14 27 -20 24 -58 -4 -42 -5 -43 -38 -39 -30 3 -35 1 -44 -26 -13 -37 -2 -46 57 -46 37 0 42 3 46 28 3 15 4 64 3 109 -1 76 -4 83 -28 103 -27 20 -27 20 -37 1z"
           id="path116" />
        <path
           d="M3121 427 c-13 -34 -5 -56 23 -61 103 -19 101 -18 104 -63 l3 -43 -74 0 -75 0 -11 -32 c-6 -17 -10 -32 -9 -34 2 -1 45 -4 95 -5 l93 -4 12 29 c9 23 9 31 0 34 -8 2 -12 29 -12 77 0 84 -6 92 -76 102 -27 3 -52 11 -56 17 -4 6 -11 -1 -17 -17z"
           id="path118" />
        <path
           d="M4003 443 l-63 -4 0 -36 0 -36 90 6 90 6 0 -32 c0 -60 13 -137 21 -131 12 7 11 61 -2 108 -8 28 -7 46 1 67 16 38 -1 60 -44 57 -17 -1 -59 -3 -93 -5z"
           id="path120" />
        <path
           d="M3641 414 c-18 -40 -13 -53 25 -69 33 -14 35 -17 29 -46 -11 -49 11 -26 24 25 13 51 7 73 -20 81 -10 4 -25 12 -33 20 -11 12 -15 10 -25 -11z"
           id="path122" />
        <path
           d="M3856 424 c-12 -30 -6 -59 14 -72 22 -13 26 -43 10 -73 -16 -28 -47 -24 -65 11 -17 33 -20 60 -5 60 12 0 14 57 3 63 -5 2 -20 7 -35 11 -26 6 -28 4 -28 -28 0 -25 5 -36 19 -41 11 -3 21 -19 24 -38 4 -17 9 -42 12 -53 5 -17 1 -23 -19 -28 -23 -6 -26 -12 -26 -47 0 -32 3 -39 13 -31 6 5 26 13 44 17 51 11 83 41 83 80 0 19 5 57 11 85 10 48 9 53 -12 76 -26 28 -35 30 -43 8z"
           id="path124" />
        <path
           d="M3433 413 c-3 -6 -3 -22 -1 -35 3 -21 9 -23 78 -28 l75 -5 3 -82 c2 -46 7 -83 11 -83 16 0 20 44 11 115 -5 39 -10 75 -10 80 -1 30 -22 40 -91 45 -50 4 -73 2 -76 -7z"
           id="path126" />
        <path
           d="M3957 314 c-8 -9 -9 -60 -1 -91 9 -34 24 -17 23 25 -1 43 -12 76 -22 66z"
           id="path128" />
      </g>
      <g
         transform="matrix(2.1395565,0,0,2.1395565,-12973.381,-4700.0506)"
         id="g163">
        <path
           id="path3703"
           style="fill:#231f20;fill-opacity:1;fill-rule:evenodd;stroke:none;stroke-width:7.5"
           d="m 8059.6519,4056.0216 -19.9635,-28.9743 c -0.6975,-1.2498 -1.9987,-1.8469 -3.9007,-1.7964 l -82.005,11.5248 c -1.02,0.1402 -1.5945,1.005 -1.722,2.5865 l 1.1265,2.4441 17.7067,25.9106 c 0.753,1.6294 2.2463,2.3756 4.4843,2.235 l 64.125,-9.0112 3.7035,7.8159 2.1262,9.5981 c 1.7963,12.7744 -0.9225,21.5362 -8.1562,26.2856 -7.236,4.7541 -18.8565,8.251 -34.8653,10.5019 -7.3987,1.7353 -12.5835,3.766 -15.5572,6.0937 -2.9708,2.3307 -3.9945,6.8166 -3.0585,13.4579 1.0282,7.3209 3.5557,14.175 7.5787,20.5556 4.0238,6.3835 7.335,9.5644 9.939,9.5456 0.9488,-0.6562 1.5705,-1.1775 1.863,-1.5627 l -1.7407,-4.9698 c -0.48,-3.4012 1.3635,-5.7477 5.4825,-7.0209 l 35.5462,-8.1234 c 7.9223,-1.111 12.3945,-5.4319 13.4228,-12.9554 0.9832,-7.5187 0.375,-19.2881 -1.8788,-35.2969 l -1.182,-8.4318 c -0.5025,-3.5747 -0.9735,-6.8991 -1.4032,-9.9609 -0.57,-4.0866 -1.9613,-9.6254 -4.1588,-16.6116 l 10.4753,-1.4719 c 0.63,-0.4313 1.0125,-0.8344 1.1325,-1.2019 z"
           inkscape:connector-curvature="0" />
        <path
           id="path3705"
           style="fill:#231f20;fill-opacity:1;fill-rule:evenodd;stroke:none;stroke-width:7.5"
           d="m 7869.1497,4115.8491 -1.6208,-3.7416 -1.4992,-5.3072 -2.9895,-34.1803 c -0.285,-3.2578 -0.585,-5.6475 -0.8873,-7.1728 -0.3075,-1.53 -1.071,-3.8794 -2.301,-7.05 -1.2255,-3.1753 -3.6937,-5.7188 -7.4017,-7.6406 -3.7073,-1.9182 -6.675,-2.7816 -8.8995,-2.5875 -1.029,0.094 -1.4775,0.9093 -1.3418,2.4497 l 2.1818,4.2094 2.7577,13.7446 3.24,22.246 c 0.315,3.5981 0.63,6.2025 0.9435,7.815 0.315,1.6134 1.2383,4.2919 2.7735,8.0446 1.5398,3.75 3.9675,6.8588 7.29,9.3329 l 5.6685,2.6128 c 1.5413,-0.1313 2.238,-1.0603 2.0858,-2.775"
           inkscape:connector-curvature="0" />
        <path
           id="path3707"
           style="fill:#231f20;fill-opacity:1;fill-rule:evenodd;stroke:none;stroke-width:7.5"
           d="m 7947.1602,4143.166 c -0.39,-4.4541 -1.1633,-7.8403 -2.2718,-10.1597 -0.7545,-2.2219 -3.099,-4.3481 -7.1625,-6.4078 l -1.2067,-1.4503 -0.1125,-1.2835 0.465,-12.4744 2.5582,-41.7834 v -3.3646 c -0.39,-4.4569 -2.5215,-9.6198 -6.405,-15.496 -3.885,-5.9184 -6.7095,-9.1256 -8.4847,-9.66 l -1.7963,0.1597 c -1.1272,0.4403 -1.7835,0.8438 -1.9672,1.2038 l 0.2025,2.3147 8.7135,81.8484 -52.1685,4.5629 c -8.568,0.75 -15.2468,2.3699 -20.0355,4.8599 -4.7888,2.4928 -6.8295,7.7625 -6.1253,15.8147 0.285,3.2559 2.073,8.8838 5.3603,16.8863 3.2902,7.9959 6.219,11.8837 8.7915,11.6578 1.7137,-0.15 2.556,-1.3472 2.535,-3.5878 l -1.3688,-3.765 c -0.12,-1.3688 0.3,-2.4854 1.2623,-3.3488 0.9622,-0.8625 2.3677,-1.544 4.2225,-2.0512 l 65.2785,-5.7113 c 3.5977,-0.3097 6.243,-2.1422 7.935,-5.4853 1.6957,-3.3432 2.2965,-7.7972 1.818,-13.2788"
           inkscape:connector-curvature="0" />
        <path
           id="path3709"
           style="fill:#231f20;fill-opacity:1;fill-rule:evenodd;stroke:none;stroke-width:7.5"
           d="m 7817.7117,4146.1604 c -0.075,-3.4388 -0.7125,-6.2663 -1.9553,-8.4825 -1.2442,-2.2135 -2.7435,-4.3369 -4.497,-6.3704 -7.1805,-7.2731 -12.8415,-16.2018 -16.9815,-26.7946 -3.6247,-10.6013 -5.5402,-21.8372 -5.7472,-33.6994 -0.1575,-8.7703 -1.9253,-14.1591 -5.316,-16.1635 -3.3878,-2.0034 -10.329,-2.9146 -20.8178,-2.7346 l -56.2725,0.9834 c -1.191,0.7125 -1.953,1.411 -2.286,2.1047 l -0.4425,18.8447 -2.5957,26.1037 -0.8618,9.8625 c 0.083,5.0306 0.9435,9.6169 2.562,13.7175 l 7.9988,14.6513 c -6.3383,1.7034 -10.9778,4.4081 -13.9223,8.2003 -2.9422,3.75 -4.3635,8.5894 -4.26,14.4788 0.075,3.2709 0.96,8.0681 2.7,14.3606 1.746,6.2925 3.7335,9.4819 5.9745,9.615 1.5518,0.3187 2.5725,-0.4313 3.0578,-2.206 l -1.134,-5.8706 c -0.075,-3.3956 1.887,-5.1497 5.8417,-5.219 8.0625,-1.1748 13.8315,-3.3835 17.3025,-6.6254 3.4673,-3.2419 5.1045,-10.5394 4.9088,-21.8869 -0.12,-6.705 -1.2975,-10.0396 -3.5325,-10.0002 l -11.0453,2.775 -5.601,-10.4841 c -0.9015,-2.2191 -1.5472,-4.7888 -1.9402,-7.7044 l 3.0802,-18.1153 1.8308,-10.8694 9.03,-0.1597 29.2402,49.2853 c -3.2475,1.0922 -6.4762,3.3853 -9.684,6.8803 -2.8642,3.4894 -4.2457,7.9884 -4.1505,13.4897 0.075,2.235 0.3375,4.6818 0.9008,7.3368 0.5625,2.6579 1.4752,5.6954 2.7397,9.1125 2.1735,6.3254 4.725,9.4632 7.6455,9.4125 1.377,0 2.2185,-1.0677 2.5275,-3.1377 l -1.3575,-3.8485 c -0.075,-2.0644 1.14,-3.6328 3.531,-4.7063 l 7.935,-3.4921 c 3.2475,-1.2591 6.0863,-3.6329 8.52,-7.1138 2.4353,-3.4837 3.6098,-7.7175 3.5213,-12.7078 -0.075,-3.0909 -0.54,-6.0084 -1.4453,-8.7459 l -3.2422,-8.4591 -1.8285,-1.2572 h -1.5488 l -8.4352,4.5357 -28.3365,-46.7232 50.2125,-0.8812 c 0.075,3.1415 0.495,6.0571 1.3132,8.7094 0.8213,2.6943 2.1233,5.7665 3.9038,9.2212 2.6782,5.7131 5.9047,10.6453 9.6757,14.8388 3.771,4.1887 5.6655,6.825 5.6843,7.8562 l -1.257,1.8703 c -0.33,0.8625 -1.77,2.0972 -4.3658,3.646 -2.6422,1.5918 -5.3497,4.005 -8.1742,7.2787 -2.823,3.3197 -4.17,7.4306 -4.0845,12.374 0.105,6.1041 2.4922,12.0807 7.1512,17.8473 4.6583,5.8115 8.1128,9.105 10.3635,9.9252 2.754,0.1223 4.1993,-0.9281 4.3313,-3.1696 l -2.136,-4.0931 -1.0763,-2.5613 c 0,-1.3744 1.3208,-3.1172 4.0365,-5.2303 2.8973,-1.5994 5.778,-4.1007 8.6423,-7.5048 2.865,-3.404 4.2547,-7.5121 4.1722,-12.3281"
           inkscape:connector-curvature="0" />
        <path
           id="path3711"
           style="fill:#231f20;fill-opacity:1;fill-rule:evenodd;stroke:none;stroke-width:7.5"
           d="m 7666.6872,4077.8073 c 0.075,-3.2682 -0.15,-6.4548 -0.6075,-9.556 -0.4575,-3.1069 -1.35,-6.389 -2.6655,-9.854 -1.9478,-6.7416 -4.125,-10.1354 -6.5295,-10.1785 -1.0343,0 -1.656,1.0922 -1.866,3.3253 l 1.701,6.0928 0.6975,4.3135 c 0,2.0625 -0.1875,3.5662 -0.465,4.5469 -0.2325,1.0284 -0.8753,3.21 -1.7918,6.5502 -0.9622,3.3807 -1.9395,5.2116 -2.9362,5.5388 l -1.023,-0.534 -10.203,-23.9147 c -0.831,-1.7353 -2.0588,-2.7028 -3.6053,-2.9016 l -32.4135,-0.5625 c -0.861,0 -1.377,0 -1.5495,0 l -0.7995,1.5329 0.7275,2.594 11.3558,29.6119 c 0.8317,1.5656 1.9372,2.3578 3.3082,2.3784 l 30.6968,0.534 c 2.0655,0 3.168,0.9187 3.3082,2.6391 -1.3627,9.0937 -2.115,17.7647 -2.2612,26.0221 l -0.2175,12.6357 c 0,2.0653 -1.0875,3.2503 -3.1575,3.5587 l -13.689,0.7969 c -4.6538,0.4312 -8.5493,1.9153 -11.6873,4.4401 -3.1417,2.5275 -4.7647,6.9712 -4.8787,13.333 -0.1425,8.0813 1.2802,15.331 4.2645,21.7481 2.985,6.4154 4.9057,9.7191 5.7615,9.9048 h 1.8037 l 1.3185,-1.5225 -0.18,-4.3904 c 0,-1.7193 0.7838,-3.0403 2.2583,-3.959 1.4805,-0.9188 2.823,-1.3716 4.0267,-1.35 5.8433,0.1027 11.1578,-1.2684 15.939,-4.1063 4.7805,-2.8434 7.2315,-7.7016 7.35,-14.5791 l -1.344,-11.6343 -1.1212,-9.825 c 0.105,-6.0188 1.8307,-13.6434 5.1742,-22.8722 3.3458,-9.2325 5.1098,-19.3491 5.304,-30.3544"
           inkscape:connector-curvature="0" />
        <path
           id="path3713"
           style="fill:#231f20;fill-opacity:1;fill-rule:evenodd;stroke:none;stroke-width:7.5"
           d="m 7572.4159,4149.3123 c 0.24,-3.4285 0,-6.5054 -0.6525,-9.2241 -0.6675,-2.7188 -2.9227,-4.9884 -6.7627,-6.8082 -1.029,-0.094 -1.5705,-0.9731 -1.6215,-2.7 l 7.8022,-30.2287 5.0363,-23.9578 c 0.45,-6.346 -1.074,-13.0031 -4.5495,-19.9707 -3.1365,-6.944 -5.6453,-10.4812 -7.5338,-10.6144 -2.2297,-0.15 -3.1837,1.156 -2.8627,3.9385 l -3.9195,81.9619 -51.4703,-3.5981 c -3.261,-0.225 -5.7187,-2.0804 -7.3687,-5.5594 -1.656,-3.4754 -2.3018,-7.7888 -1.9403,-12.9365 l 3.8828,-20.4169 1.5652,-9.4585 0.4725,-6.6919 0.45,-6.4331 c 0.3225,-4.6321 -1.2802,-10.0031 -4.8202,-16.1128 -3.5393,-6.1087 -5.9813,-9.3834 -7.3298,-9.8213 -2.5725,-0.1777 -3.9142,0.5063 -4.023,2.0456 -0.083,1.201 0.1125,2.0785 0.5925,2.6289 1.3403,3.0234 1.8893,6.253 1.65,9.6834 l -1.35,19.3012 -0.9907,14.1535 c -0.225,3.2615 -0.3675,6.4819 -0.42,9.6684 -0.097,3.1837 0.075,6.9891 0.4125,11.4085 0.3375,4.4193 2.4795,10.1277 6.3885,17.1271 -4.3635,0.7313 -7.917,2.8491 -10.662,6.3647 -2.745,3.5166 -4.2495,7.1597 -4.515,10.9359 -0.3825,5.4873 0.4425,12.1416 2.4847,19.9548 2.0385,7.8159 4.7723,11.8415 8.2035,12.0834 l 0.8663,-1.2357 0.57,-0.7312 -0.375,-5.7159 c 0.12,-1.7175 0.9412,-2.9954 2.4667,-3.8381 1.5255,-0.8438 3.0578,-1.2038 4.602,-1.0969 l 58.6748,4.1025 c 4.632,0.3277 8.4907,-0.6098 11.5762,-2.8116 3.0593,-1.8544 4.884,-6.9863 5.472,-15.3947"
           inkscape:connector-curvature="0" />
        <path
           id="path3715"
           style="fill:#231f20;fill-opacity:1;fill-rule:evenodd;stroke:none;stroke-width:7.5"
           d="m 7466.4252,4056.0666 c 0.48,-3.4068 0.4875,-6.5747 0.075,-9.5053 -0.4575,-2.9288 -1.5285,-5.8153 -3.2138,-8.6588 l -0.6225,-1.1287 c -1.323,-0.1875 -2.2927,-0.094 -2.9205,0.375 l -0.18,1.2787 -5.7457,40.875 c -2.8253,20.0982 -5.583,31.9988 -8.2725,35.7 -2.6918,3.7022 -10.4228,4.6566 -23.1968,2.8622 l -42.9217,-6.0328 c -2.1945,-4.1296 -3.9195,-7.9321 -5.1683,-11.4084 -0.4875,-1.456 -0.8212,-2.806 -0.9937,-4.0444 -0.1725,-1.2441 -0.1425,-2.7131 0.097,-4.4166 0.525,-3.7471 2.8642,-8.0202 7.0125,-12.8202 4.1482,-4.8048 7.4175,-9.5082 9.8002,-14.1244 2.3873,-4.6135 3.8648,-8.9663 4.4385,-13.0556 1.053,-7.4916 -0.315,-13.5029 -4.1055,-18.0282 -3.792,-4.5291 -8.5867,-7.2018 -14.3775,-8.0156 l -19.266,-1.9237 -2.1127,2.0465 c -0.1425,1.0228 0.6975,3.0506 2.5327,6.0881 -1.359,2.2397 -2.238,4.8094 -2.6467,7.7035 -0.8138,5.7909 0.18,11.0559 2.9895,15.7884 2.8117,4.7381 7.1932,7.5291 13.1542,8.3635 l -3.2685,6.5746 -2.2777,8.7985 c -0.6675,4.77 -0.6525,9.2849 0.075,13.5534 0.705,4.2675 2.6812,10.2759 5.9347,18.0281 -2.9422,-0.094 -6.0405,1.2759 -9.2962,4.034 -3.2498,2.7535 -5.283,7.0295 -6.099,12.8195 -1.2435,8.8575 -0.8235,16.0781 1.2517,21.6694 2.0813,5.5884 4.1198,8.6981 6.1155,9.3252 1.533,0.216 2.6543,-0.9731 3.3608,-3.524 l -0.18,-4.2787 c 0.165,-1.1925 0.66,-2.2079 1.4565,-2.9654 1.1475,-0.75 2.4135,-1.095 3.798,-1.0715 l 9.45,1.3294 44.967,6.3196 c 7.8307,1.0997 14.055,0.094 18.6712,-3.1096 4.6133,-3.1707 7.3643,-7.9088 8.2493,-14.2098 l 13.497,-81.2071 z"
           inkscape:connector-curvature="0" />
      </g>
      <g
         transform="matrix(2.716584,0,0,2.716584,-15604.439,492.87496)"
         id="g188">
        <path
           id="path3695"
           style="fill:#231f20;fill-opacity:1;fill-rule:evenodd;stroke:#231f20;stroke-width:2.0250001;stroke-linecap:butt;stroke-linejoin:miter;stroke-miterlimit:22.92558479;stroke-dasharray:none;stroke-opacity:1"
           d="m 6826.6296,575.39824 c 0,-9.2129 -1.9193,-18.9347 -5.82,-29.1713 -3.9038,-10.2337 -7.1003,-15.3497 -9.5933,-15.3497 -3.072,0 -4.6725,2.0466 -4.9297,6.1397 0,7.9322 -12.4073,21.2382 -37.2263,39.915 l -11.5147,9.5962 -61.7918,45.6741 -5.3737,-4.9912 c -1.281,-1.7907 -1.9185,-3.5823 -1.9185,-5.3729 0,-1.5365 1.4085,-3.5821 4.2225,-6.1415 l 12.666,-11.5125 c 2.8117,-2.3035 5.6287,-4.7991 8.4427,-7.486 2.8148,-2.684 5.7563,-5.82 8.826,-9.4021 5.8853,-6.3966 8.8275,-15.0975 8.8275,-26.0991 0,-7.4194 -2.1742,-13.6884 -6.5242,-18.8072 -3.582,-4.86 -9.2108,-7.8019 -16.8878,-8.8256 h -39.9135 c -2.3032,0 -3.4567,1.1512 -3.4567,3.4528 0,2.0484 1.536,4.1588 4.608,6.3957 3.0697,2.1768 4.605,4.9274 4.605,8.2546 l -1.5353,6.2025 -4.9912,18.105 -1.1505,13.8169 c 0,10.8075 1.6627,20.085 4.9905,27.7594 3.327,7.7418 8.7007,14.9034 16.1197,21.6215 -4.86,4.861 -8.8275,10.17 -11.8995,15.9291 -3.069,5.82 -4.6027,13.3031 -4.6027,22.5806 0,18.4856 6.5235,34.9247 19.572,49.3172 0.7687,1.2788 2.1765,1.7916 4.2232,1.5338 1.533,-0.2528 2.4293,-1.2788 2.6873,-3.0666 l -3.0728,-6.2081 -1.1512,-5.0522 c 0,-3.84 0.8325,-7.0369 2.496,-9.466 1.6627,-2.4947 5.307,-6.1415 10.938,-11.0681 l 16.8862,-14.7121 33.0083,-25.9079 17.6527,-13.1756 7.293,15.3525 -4.9882,3.8371 c -4.095,3.0694 -7.5473,6.5241 -10.3643,10.3623 -2.3017,3.8371 -3.4515,8.0596 -3.4515,12.6675 0,7.1625 3.9008,16.6922 11.7053,28.5918 7.803,11.8978 13.7535,17.8453 17.8455,17.8453 1.7917,0 2.814,-1.4062 3.069,-4.2206 l -1.1498,-6.524 c 0,-2.5585 3.3908,-6.0132 10.17,-10.3613 6.7815,-4.3528 12.2183,-9.3412 16.311,-14.9691 4.095,-5.6287 6.1418,-11.7703 6.1418,-18.4219 0,-6.6543 -2.304,-14.7786 -6.9075,-24.3721 -4.608,-9.5963 -7.8045,-14.5228 -9.5955,-14.775 h -2.304 l -8.826,6.5212 -9.2138,7.6772 -7.674,-14.969 26.6115,-20.7263 c 4.0928,-2.8116 8.058,-7.4831 12.0255,-14.0072 3.9008,-6.524 5.8838,-14.5209 5.8838,-23.9869 z m 208.8082,108.614 c 0,-6.3965 -1.1497,-11.4487 -3.4545,-15.1584 -2.3017,-3.7097 -4.6687,-6.0141 -7.098,-6.9094 -2.4345,-0.8907 -4.4145,-2.6232 -5.9497,-5.1816 l -1.1505,-6.524 6.909,-72.1537 v -6.1416 c 0,-9.9788 -2.6228,-19.575 -7.869,-28.7859 -5.3093,-8.4423 -8.8275,-12.7932 -10.5555,-13.0482 l -2.6865,2.6868 1.1512,41.8341 1.9208,80.5988 -1.9208,2.3015 c -0.7687,0.7688 -1.4092,1.1531 -1.9192,1.1531 h -72.7305 c -10.17,0 -17.7833,2.4929 -22.899,7.4832 -5.0543,4.9884 -7.614,12.3441 -7.614,22.0678 0,7.6781 1.536,16.8863 4.6065,27.6356 3.0712,10.7466 6.5257,16.1175 10.3635,16.1175 2.301,0 3.4522,-1.2787 3.4522,-3.8372 l -0.7657,-8.0606 c 0,-2.5565 1.0875,-4.5413 3.261,-5.9503 2.1765,-1.4053 6.2077,-2.1094 12.0915,-2.1094 h 82.1325 c 4.605,0 9.2107,-2.3016 13.8187,-6.9093 4.605,-4.6032 6.906,-11.64 6.906,-21.1088 z m 162.3668,-106.695 c 0,-11.5153 -3.837,-22.6444 -11.5118,-33.3909 -3.582,-4.351 -8.124,-7.2928 -13.689,-8.8285 l -21.621,-1.5337 h -42.6 c -2.3062,0 -3.4575,1.0237 -3.4575,3.0694 l 16.1205,46.8252 c 0.5175,2.3016 2.4323,3.4519 5.7563,3.4519 h 50.6625 c -4.092,16.3754 -6.1418,28.9135 -6.1418,37.6144 l 2.6903,26.0991 c 0,3.8371 -1.6673,5.8837 -4.9913,6.1387 h -12.2805 c -7.677,0 -15.2242,1.9209 -22.6462,5.7582 -6.6495,3.7743 -9.9795,11.834 -9.9795,24.0506 0,8.3784 2.1765,17.7834 6.5265,28.2094 4.3507,10.4277 7.9335,15.6731 10.7475,15.6731 2.5582,0 3.9645,-1.6631 4.2195,-4.9875 l -0.7673,-7.6781 c 0,-3.3273 2.046,-5.3729 6.141,-6.1407 16.1205,0 26.6093,-2.5593 31.4723,-7.6781 5.1157,-4.605 7.6755,-12.2803 7.6755,-23.0269 0,-4.605 -1.0868,-9.66 -3.261,-15.1612 -2.1743,-5.4975 -3.2633,-11.8304 -3.2633,-18.9975 l 1.1528,-11.895 8.826,-34.1625 c 0.768,-2.8116 1.599,-6.7125 2.4952,-11.7029 0.8955,-4.9912 1.4723,-8.8921 1.7243,-11.7065 z m 208.4272,87.5054 c 0,-22.7719 -1.9192,-39.3385 -5.7562,-49.7025 -3.8378,-10.3623 -11.3213,-18.8682 -22.4535,-25.5225 -11.13,-6.6516 -19.4445,-13.0482 -24.9458,-19.1898 -5.5042,-6.1415 -8.892,-13.0481 -10.173,-20.7262 -0.765,-7.1644 -2.5567,-12.2794 -5.3737,-15.3516 -2.8118,-3.0693 -6.2693,-4.6059 -10.3613,-4.6059 -2.814,0 -5.1795,1.1531 -7.1002,3.4547 -1.9193,2.3015 -3.006,4.9884 -3.261,8.0606 0,12.2803 4.4775,21.7481 13.431,28.4025 5.1187,3.5803 11.259,7.5478 18.4245,11.895 2.0452,1.2816 6.2692,3.7097 12.6652,7.2947 11.2568,5.8837 19.0628,11.7037 23.4098,17.4628 4.35,5.7563 6.5265,12.2166 6.5265,19.3809 0,13.8159 -4.095,22.3894 -12.2828,25.7166 -8.187,3.3243 -19.83,4.9875 -34.9245,4.9875 h -34.5442 c -7.9305,0 -14.5823,2.6231 -19.956,7.8693 -5.373,5.2435 -8.0595,11.5763 -8.0595,18.9985 v 42.599 c 0,44.1413 -1.2915,32.6363 34.47,33.6094 1.7647,0.3 3.2767,1.6688 4.5682,4.0763 1.2675,2.3625 3.3165,4.5441 6.1118,6.4762 2.775,1.9163 6.24,3.6938 10.5,4.6829 3.7312,0.8625 8.3287,0.234 13.6305,-1.215 5.3017,-1.4429 8.4592,-3.6375 9.474,-6.5794 l -1.0688,-2.9044 c -0.72,-0.384 -1.344,-0.4597 -1.8945,-0.3187 -1.8817,0.4785 -3.723,-0.234 -5.4855,-2.0888 l -7.047,-13.6406 c -1.6665,-3.2213 -4.8577,-5.1 -9.1417,-5.8172 -2.52,-0.4125 -5.7833,0.01 -9.7538,1.2806 -3.972,1.2731 -7.635,6.6441 -12.6247,5.6635 -21.183,-4.17 -12.5325,-6.5054 -11.5898,-33.5879 0.135,-3.8371 4.6695,-5.3709 9.7875,-5.3709 h 54.4995 c 11.5125,0 21.1088,-3.84 28.7835,-11.5153 7.677,-7.6772 11.5155,-18.9366 11.5155,-33.7762 z"
           inkscape:connector-curvature="0" />
      </g>
    </g>
  </g>
</svg>
