<svg aria-hidden="true" style="position:absolute;width:0;height:0;overflow:hidden" xmlns="http://www.w3.org/2000/svg">
    <symbol id="gi-phone" viewBox="0 0 24 24">
      <path d="M7 3h3l1.2 5-2.1 1.3a13.5 13.5 0 0 0 5.6 5.6L16 12.8 21 14v3c0 1.1-.9 2-2 2C10.2 19 5 13.8 5 5c0-1.1.9-2 2-2Z"
        fill="none" stroke="currentColor" stroke-width="2" stroke-linejoin="round" stroke-linecap="round" />
    </symbol>

    <symbol id="gi-mail" viewBox="0 0 24 24">
      <path d="M4 7.5A2.5 2.5 0 0 1 6.5 5h11A2.5 2.5 0 0 1 20 7.5v9A2.5 2.5 0 0 1 17.5 19h-11A2.5 2.5 0 0 1 4 16.5v-9Z"
        fill="none" stroke="currentColor" stroke-width="2" />
      <path d="M5.5 7.5 12 12.2 18.5 7.5" fill="none" stroke="currentColor" stroke-width="2"
        stroke-linecap="round" stroke-linejoin="round" />
    </symbol>

    <symbol id="gi-clock" viewBox="0 0 24 24">
      <path d="M12 21a9 9 0 1 0 0-18 9 9 0 0 0 0 18Z" fill="none" stroke="currentColor" stroke-width="2" />
      <path d="M12 7v5l3 2" fill="none" stroke="currentColor" stroke-width="2" stroke-linecap="round"
        stroke-linejoin="round" />
    </symbol>

    <symbol id="gi-truck" viewBox="0 0 24 24">
      <path d="M3 7h10v10H3V7Z" fill="none" stroke="currentColor" stroke-width="2" stroke-linejoin="round" />
      <path d="M13 10h4l3 3v4h-7v-7Z" fill="none" stroke="currentColor" stroke-width="2" stroke-linejoin="round" />
      <path d="M7 19a2 2 0 1 0 0-4 2 2 0 0 0 0 4Z" fill="none" stroke="currentColor" stroke-width="2" />
      <path d="M17 19a2 2 0 1 0 0-4 2 2 0 0 0 0 4Z" fill="none" stroke="currentColor" stroke-width="2" />
    </symbol>

    <symbol id="gi-plate" viewBox="0 0 24 24">
      <path d="M12 20a7 7 0 1 0 0-14 7 7 0 0 0 0 14Z" fill="none" stroke="currentColor" stroke-width="2" />
      <path d="M12 16a3 3 0 1 0 0-6 3 3 0 0 0 0 6Z" fill="none" stroke="currentColor" stroke-width="2" />
      <path d="M19 5v6" fill="none" stroke="currentColor" stroke-width="2" stroke-linecap="round" />
      <path d="M17 5v6" fill="none" stroke="currentColor" stroke-width="2" stroke-linecap="round" />
      <path d="M15 5v6" fill="none" stroke="currentColor" stroke-width="2" stroke-linecap="round" />
    </symbol>

    <symbol id="gi-chef" viewBox="0 0 24 24">
      <path d="M7 10c-2.2 0-4-1.5-4-3.5S4.8 3 7 3c.7 0 1.4.2 2 .5A4 4 0 0 1 12 2a4 4 0 0 1 3 1.5c.6-.3 1.3-.5 2-.5 2.2 0 4 1.5 4 3.5S19.2 10 17 10H7Z"
        fill="none" stroke="currentColor" stroke-width="2" stroke-linejoin="round" />
      <path d="M8 10v10h8V10" fill="none" stroke="currentColor" stroke-width="2" stroke-linejoin="round" />
      <path d="M9 14h6" fill="none" stroke="currentColor" stroke-width="2" stroke-linecap="round" />
    </symbol>
  </svg>